<?xml version="1.0" ?><svg contentScriptType="text/ecmascript" contentStyleType="text/css" enable-background="new 0 0 2048 2048" height="2048px" id="Layer_1" preserveAspectRatio="xMidYMid meet" version="1.1" viewBox="27.0 0 1637.0 2048" width="1637.0px" xml:space="preserve" xmlns="http://www.w3.org/2000/svg" xmlns:xlink="http://www.w3.org/1999/xlink" zoomAndPan="magnify"><path d="M1190,709l293-293l-107-107l-293,293L1190,709z M1637,416c0,18-6,33-18,45L333,1747c-12,12-27,18-45,18s-33-6-45-18L45,1549  c-12-12-18-27-18-45s6-33,18-45L1331,173c12-12,27-18,45-18s33,6,45,18l198,198C1631,383,1637,398,1637,416z M286,226l98,30l-98,30  l-30,98l-30-98l-98-30l98-30l30-98L286,226z M636,388l196,60l-196,60l-60,196l-60-196l-196-60l196-60l60-196L636,388z M1566,866  l98,30l-98,30l-30,98l-30-98l-98-30l98-30l30-98L1566,866z M926,226l98,30l-98,30l-30,98l-30-98l-98-30l98-30l30-98L926,226z"/></svg>